<?xml version="1.0" encoding="utf-8"?>
<!-- Generator: Adobe Illustrator 22.1.0, SVG Export Plug-In . SVG Version: 6.00 Build 0)  -->
<svg version="1.1" id="Capa_1" xmlns="http://www.w3.org/2000/svg" xmlns:xlink="http://www.w3.org/1999/xlink" x="0px" y="0px"
	 viewBox="0 0 512 512" style="enable-background:new 0 0 512 512;" xml:space="preserve">
<style type="text/css">
	.st0{fill:#216800;}
</style>
<g>
	<g>
		<path class="st0" d="M500.9,260l1.4-4l-1.4-4c-0.4-1.2-10.5-29.5-39.9-57.6c-17.1-16.4-37.4-29.4-60.3-38.8
			c-28.3-11.5-60.5-17.4-95.8-17.4l-12.3,0l0,105.5l-24.7,0V138.2h-24.7v105.5l-24.7,0l0-80.8h-24.7l0,80.8h-24.7l0-56.1l-24.7,0
			v56.1H127c-4.1-7.5-11.6-19.6-22.4-31.9c-23.3-26.3-51.2-40.2-80.6-40.2l-12.3,0l0,168.7H24c29.4,0,57.3-13.9,80.6-40.2
			c10.9-12.2,18.3-24.4,22.4-31.9h17.4l0,56.1l24.7,0v-56.1h24.7l0,80.8h24.7l0-80.8l24.7,0l0,105.5l24.7,0V268.3h24.7v105.5h12.3
			c35.3,0,67.5-5.9,95.8-17.4c22.8-9.3,43.1-22.4,60.3-38.8C490.4,289.5,500.4,261.2,500.9,260z M36.3,314.6l0-117.1
			c38,7,61.8,44.8,69.3,58.6C98.1,269.9,74.4,307.6,36.3,314.6z M444,299.8c-14.9,14.2-32.6,25.6-52.6,33.8
			c-22,9-46.9,14.1-74.1,15.3l0-185.7c26.9,1.2,51.5,6.2,73.3,15c19.9,8,37.5,19.2,52.5,33.2c17.7,16.6,28.4,34.6,32.9,44.6
			C472.4,263.7,463,281.6,444,299.8z"/>
	</g>
</g>
<g>
	<g>
		<polygon class="st0" points="406.6,241.4 406.6,219 384.2,219 384.2,241.4 361.8,241.4 361.8,263.8 384.2,263.8 384.2,286.2 
			406.6,286.2 406.6,263.8 429,263.8 429,241.4 		"/>
	</g>
</g>
</svg>
